# This file uses centimeters as units for non-parametric coordinates.

mtllib GrassClump.mtl
g default
v -21.838552 -9.587809 -3.622005
v -13.103133 -9.587809 -0.000000
v -4.367710 -9.587809 1.118585
v 4.367712 -9.587809 1.118585
v 13.103133 -9.587809 -0.000000
v 21.838552 -9.587809 -3.622005
v -21.838552 16.764261 -3.622005
v -13.103133 16.764261 0.000000
v -4.367710 4.950744 1.118585
v 4.367712 16.764261 1.118585
v 13.103133 12.380172 0.000000
v 21.838552 -0.342421 -3.622005
v -18.022305 27.080423 -2.039657
v -16.919380 27.080423 -1.582348
v -0.663826 27.080423 1.118585
v 0.663828 27.080423 1.118585
v 16.908922 27.080423 -1.578011
v 18.032766 27.080423 -2.043994
v -9.246909 34.268162 0.493796
v -8.223934 34.268162 0.624789
v 7.887558 28.897062 0.667863
v 9.583288 28.897062 0.450722
vt 0.000000 0.000000
vt 0.200000 0.000000
vt 0.400000 0.000000
vt 0.600000 0.000000
vt 0.800000 0.000000
vt 1.000000 0.000000
vt 0.000000 1.000000
vt 0.200000 1.000000
vt 0.400000 1.000000
vt 0.600000 1.000000
vt 0.800000 1.000000
vt 1.000000 1.000000
vt 0.000000 0.000000
vt 1.000000 0.000000
vt 1.000000 1.000000
vt 0.000000 1.000000
vt 0.000000 0.000000
vt 1.000000 0.000000
vt 1.000000 1.000000
vt 0.000000 1.000000
vt 0.000000 0.000000
vt 1.000000 0.000000
vt 1.000000 1.000000
vt 0.000000 1.000000
vt 0.000000 0.000000
vt 1.000000 0.000000
vt 1.000000 1.000000
vt 0.000000 1.000000
vt 0.000000 0.000000
vt 1.000000 0.000000
vt 1.000000 1.000000
vt 0.000000 1.000000
vn -0.383015 0.000000 0.923742
vn -0.257282 -0.000000 0.966336
vn -0.257282 -0.000000 0.966336
vn -0.383015 0.000000 0.923742
vn -0.063636 -0.000000 0.997973
vn -0.063636 -0.000000 0.997973
vn 0.063636 0.000000 0.997973
vn 0.063636 0.000000 0.997973
vn 0.257282 0.000000 0.966336
vn 0.257282 0.000000 0.966336
vn 0.383015 0.000000 0.923742
vn 0.383015 0.000000 0.923742
vn -0.383015 0.000000 0.923742
vn -0.383015 0.000000 0.923742
vn -0.383015 0.000000 0.923742
vn -0.383015 0.000000 0.923742
vn 0.000000 0.000000 1.000000
vn 0.000000 0.000000 1.000000
vn 0.000000 0.000000 1.000000
vn 0.000000 0.000000 1.000000
vn 0.383015 -0.000000 0.923742
vn 0.383015 -0.000000 0.923742
vn 0.383015 -0.000000 0.923742
vn 0.383015 -0.000000 0.923742
vn -0.127015 0.000000 0.991901
vn -0.127015 0.000000 0.991901
vn -0.127015 0.000000 0.991901
vn -0.127015 0.000000 0.991901
vn 0.127015 -0.000000 0.991901
vn 0.127015 -0.000000 0.991901
vn 0.127015 -0.000000 0.991901
vn 0.127015 -0.000000 0.991901
s 1
g Grass
usemtl initialShadingGroup
f 1/1/1 2/2/2 8/8/3 7/7/4
f 2/2/2 3/3/5 9/9/6 8/8/3
f 3/3/5 4/4/7 10/10/8 9/9/6
f 4/4/7 5/5/9 11/11/10 10/10/8
f 5/5/9 6/6/11 12/12/12 11/11/10
s off
f 7/13/13 8/14/14 14/15/15 13/16/16
f 9/17/17 10/18/18 16/19/19 15/20/20
f 11/21/21 12/22/22 18/23/23 17/24/24
f 8/25/25 9/26/26 20/27/27 19/28/28
f 10/29/29 11/30/30 22/31/31 21/32/32
